<?xml version="1.0" encoding="UTF-8"?>
<svg version="1.1" xmlns="http://www.w3.org/2000/svg" width="2130" height="484">
<path d="M0 0 C702.9 0 1405.8 0 2130 0 C2130 159.72 2130 319.44 2130 484 C1427.1 484 724.2 484 0 484 C0 324.28 0 164.56 0 0 Z " fill="#FEFEFE" transform="translate(0,0)"/>
<path d="M0 0 C11.65036458 6.45504477 21.60416565 10.33359222 35.16601562 7.63793945 C39.67613963 6.16266525 42.24938359 4.19917482 44.63085938 0.1418457 C47.36530205 -6.07839553 48.1561883 -12.11782506 48.63085938 -18.8581543 C51.60085938 -18.8581543 54.57085938 -18.8581543 57.63085938 -18.8581543 C62.64590019 -3.81303186 59.36264429 19.4500414 54.63085938 34.1418457 C54.26863281 35.31102539 53.90640625 36.48020508 53.53320312 37.68481445 C48.19320382 53.12555821 38.305329 65.80461089 23.63085938 73.1418457 C6.23752313 81.13038818 -12.25930249 82.83160012 -30.36914062 76.1418457 C-47.97289514 67.41906105 -59.79760757 51.11275801 -71.07226562 35.65356445 C-82.37729322 19.24322538 -82.37729322 19.24322538 -99.36914062 10.1418457 C-106.85322343 9.33997969 -112.67946475 11.54994324 -118.55664062 16.0793457 C-124.29596044 21.50170111 -126.91809697 28.04775712 -127.77539062 35.8293457 C-128.18235244 52.37912634 -122.74765225 67.09608214 -111.99414062 79.6418457 C-97.09393387 94.97210936 -74.21532566 104.31703506 -52.94581604 105.30006409 C-51.75334763 105.31560837 -50.56087921 105.33115265 -49.33227539 105.34716797 C-48.66801041 105.35706757 -48.00374542 105.36696716 -47.3193512 105.37716675 C-45.14978452 105.40845315 -42.98019604 105.43340734 -40.81054688 105.45825195 C-39.29596934 105.47884997 -37.78139718 105.49984713 -36.26683044 105.52122498 C-32.30002223 105.57615187 -28.33316468 105.62568943 -24.36627197 105.67407227 C-20.31054345 105.72450325 -16.25488565 105.78007604 -12.19921875 105.83520508 C-4.25591936 105.94242669 3.6874396 106.04395001 11.63085938 106.1418457 C8.47087068 114.11313202 8.47087068 114.11313202 5.63085938 117.1418457 C1.9797566 118.02094861 -1.6067109 117.90748683 -5.34570312 117.84106445 C-6.96634171 117.85095146 -6.96634171 117.85095146 -8.61972046 117.86103821 C-12.07848401 117.87854135 -15.53546211 117.85652825 -18.99414062 117.8293457 C-22.43104123 117.81800678 -25.86739853 117.81548779 -29.30429077 117.82978821 C-31.44136096 117.83710972 -33.57855769 117.82919567 -35.71548462 117.8033905 C-45.08333344 117.80745131 -52.79937675 119.64419846 -60.58007812 124.95825195 C-62.36914062 126.1418457 -62.36914062 126.1418457 -64.47070312 127.04418945 C-66.87106288 128.43205178 -67.33179948 129.6015125 -68.36914062 132.1418457 C-68.88154297 133.22272461 -68.88154297 133.22272461 -69.40429688 134.32543945 C-69.74332031 135.06922852 -70.08234375 135.81301758 -70.43164062 136.5793457 C-70.94404297 137.69116211 -70.94404297 137.69116211 -71.46679688 138.82543945 C-75.54405451 149.29216575 -74.0194378 161.81316391 -70.36914062 172.1418457 C-69.96695313 173.34196289 -69.56476563 174.54208008 -69.15039062 175.77856445 C-60.62947358 200.38978768 -47.61945546 219.97311956 -23.76367188 231.6965332 C-7.55459383 238.59798185 12.48782084 237.94742833 28.81835938 231.5949707 C32.83063489 229.92740266 36.73191554 228.05622605 40.63085938 226.1418457 C41.58347656 225.70227539 42.53609375 225.26270508 43.51757812 224.80981445 C50.5206676 221.3449077 56.27952109 216.55542227 62.15039062 211.4597168 C63.12878906 210.62561279 63.12878906 210.62561279 64.12695312 209.7746582 C64.99598267 209.01499756 64.99598267 209.01499756 65.88256836 208.23999023 C67.63085938 207.1418457 67.63085938 207.1418457 71.63085938 207.1418457 C72.29085937 208.4618457 72.95085937 209.7818457 73.63085938 211.1418457 C45.20120262 240.82780481 12.49779751 254.34689188 -28.72460938 255.33325195 C-61.21677783 255.78256316 -98.50139592 252.30340133 -125.36914062 232.1418457 C-126.28824219 231.46508789 -127.20734375 230.78833008 -128.15429688 230.09106445 C-138.42867129 222.13443062 -145.66321064 213.27520736 -150.36914062 201.1418457 C-150.72105469 200.35551758 -151.07296875 199.56918945 -151.43554688 198.7590332 C-155.89659578 186.25316388 -154.73830669 169.06267274 -149.36914062 157.1418457 C-138.63287922 135.84437063 -118.07573023 125.33223286 -96.36914062 118.1418457 C-81.72696278 113.80159959 -81.72696278 113.80159959 -74.36914062 114.1418457 C-74.36914062 113.4818457 -74.36914062 112.8218457 -74.36914062 112.1418457 C-75.38878906 112.0284082 -76.4084375 111.9149707 -77.45898438 111.7980957 C-94.52900343 108.9331974 -109.45754483 97.03563642 -121.36914062 85.1418457 C-122.36880859 84.15958008 -122.36880859 84.15958008 -123.38867188 83.1574707 C-136.169916 69.65493741 -142.99317162 50.71458257 -142.64257812 32.34887695 C-142.09738702 20.46533032 -136.72181276 10.18075786 -128.93164062 1.3918457 C-128.08601562 0.6493457 -127.24039063 -0.0931543 -126.36914062 -0.8581543 C-125.84320312 -1.38666992 -125.31726563 -1.91518555 -124.77539062 -2.4597168 C-89.93268022 -35.97367977 -36.32681285 -20.29734821 0 0 Z " fill="#01BF64" transform="translate(837.369140625,86.858154296875)"/>
<path d="M0 0 C5.29536406 4.82189621 8.44666032 10.37522414 9.5390625 17.53125 C9.85001525 31.89161314 6.34217855 45.42347852 2.91943359 59.26171875 C2.07367079 62.70046543 1.25736708 66.1441912 0.45703125 69.59375 C-2.80411069 83.60822139 -2.80411069 83.60822139 -4 86 C-4.27948761 90.59158219 -3.54703594 94.44413241 -2.375 98.875 C-2.003598 100.30851392 -1.63252484 101.74211307 -1.26171875 103.17578125 C-0.95693604 104.33907959 -0.95693604 104.33907959 -0.64599609 105.52587891 C3.14201797 120.0337151 6.62136492 134.60023616 9.87954712 149.23562622 C11.95088985 158.52612593 14.15434006 167.77430671 16.5 177 C20.00992911 190.81170923 23.13343467 204.69630252 26.23632812 218.60351562 C27.76795728 225.41554401 29.37554885 232.20959239 31 239 C33.02171737 235.96742394 33.55782447 234.15443378 34.296875 230.64453125 C34.53011475 229.56010742 34.76335449 228.47568359 35.00366211 227.35839844 C35.24995361 226.18825195 35.49624512 225.01810547 35.75 223.8125 C37.67056954 214.91785125 39.67986257 206.06521281 41.9375 197.25 C44.28863405 188.03519627 46.43212887 178.78175941 48.5 169.5 C50.54952589 160.30222318 52.67042307 151.1315681 55 142 C57.28709396 133.03398383 59.36727397 124.03238065 61.375 115 C63.80296397 104.08384953 66.38855274 93.21796475 69.125 82.375 C69.29542816 81.69955139 69.46585632 81.02410278 69.64144897 80.32818604 C70.14497895 78.33334835 70.64864183 76.33854427 71.15234375 74.34375 C73.31889459 65.76125681 75.3950609 57.16028882 77.40136719 48.5390625 C78.05621486 45.76156831 78.73493424 42.990402 79.4140625 40.21875 C79.88066756 38.27094329 80.3468245 36.32302916 80.8125 34.375 C81.03188232 33.49827637 81.25126465 32.62155273 81.47729492 31.71826172 C82.9626987 25.40604527 83.24383237 19.47278186 83 13 C78.545 12.01 78.545 12.01 74 11 C74 10.01 74 9.02 74 8 C83.24 8 92.48 8 102 8 C102 8.99 102 9.98 102 11 C101.31292969 11.10957031 100.62585937 11.21914062 99.91796875 11.33203125 C99.01691406 11.49058594 98.11585938 11.64914063 97.1875 11.8125 C96.29417969 11.96332031 95.40085937 12.11414063 94.48046875 12.26953125 C91.60494789 13.11633818 90.82465053 13.64718507 89 16 C88.2043334 18.37669514 87.55845006 20.6486501 86.984375 23.078125 C86.80790436 23.78853943 86.63143372 24.49895386 86.44961548 25.230896 C85.87237222 27.56811663 85.31094266 29.90881836 84.75 32.25 C84.35039688 33.88426747 83.95016167 35.5183805 83.54931641 37.15234375 C80.73753832 48.67439681 78.09956096 60.23300734 75.52880859 71.81103516 C72.8354617 83.89592477 69.81419201 95.89014818 66.78027344 107.89306641 C63.30844828 121.71736146 60.1707876 135.6184078 57.04501343 149.52410889 C53.89506492 163.53412468 50.64983602 177.51662862 47.125 191.4375 C44.97527699 199.94900491 43.01457822 208.50401008 41.03933716 217.05728149 C39.07539016 225.55285699 37.03106775 234.00037445 34.62890625 242.3828125 C33.84423508 245.19959931 33.84423508 245.19959931 34 249 C37.97975672 252.35791973 41.99501553 252.57584877 47 253 C47 253.99 47 254.98 47 256 C34.13 256 21.26 256 8 256 C8 255.01 8 254.02 8 253 C10.97 252.01 13.94 251.02 17 250 C17.42589583 242.6147851 15.82427368 236.0833148 14.0625 228.9375 C13.74763514 227.6304639 13.43386375 226.32316398 13.12109375 225.015625 C12.61933442 222.918408 12.11691519 220.82137244 11.61135864 218.72506714 C9.70810439 210.82791839 7.89063984 202.91134493 6.07284546 194.99417114 C5.11858785 190.83933015 4.16117284 186.68521845 3.203125 182.53125 C3.01650803 181.72204605 2.82989105 180.9128421 2.63761902 180.07911682 C1.45025361 174.93590314 0.25311436 169.79506844 -0.953125 164.65625 C-1.10567245 164.00625031 -1.25821991 163.35625061 -1.41539001 162.68655396 C-1.56504715 162.04894135 -1.71470428 161.41132874 -1.86889648 160.75439453 C-5.05036359 147.19811825 -8.10238057 133.61982804 -11 120 C-13.21045259 125.00658066 -14.04589264 130.07085727 -15.0234375 135.4296875 C-15.92562804 139.95874792 -17.16269837 144.38921914 -18.37188721 148.8442688 C-20.2893122 155.97005147 -21.93951445 163.15189605 -23.5776062 170.34616089 C-24.33910891 173.69024332 -25.10669657 177.03292157 -25.87382507 180.37571716 C-26.28061976 182.14856926 -26.68712072 183.92148878 -27.09333801 185.69447327 C-29.30174248 195.33010972 -31.53601531 204.95970621 -33.77508545 214.58825684 C-34.42578877 217.3871265 -35.07547757 220.18623032 -35.72509766 222.98535156 C-36.12786565 224.71811384 -36.53069463 226.45086195 -36.93359375 228.18359375 C-37.11344315 228.9591008 -37.29329254 229.73460785 -37.47859192 230.53361511 C-38.32272246 234.15883417 -39.19813049 237.76940092 -40.13696289 241.37133789 C-40.96430044 244.84990028 -41.35486272 246.70961911 -40 250 C-36.79958352 252.46185883 -32.91640392 252.54810724 -29 253 C-29 253.99 -29 254.98 -29 256 C-41.54 256 -54.08 256 -67 256 C-67 255.01 -67 254.02 -67 253 C-63.04 252.01 -63.04 252.01 -59 251 C-58.00004777 245.7830944 -58.15865227 241.87348416 -59.3359375 236.70703125 C-59.49040344 236.0159024 -59.64486938 235.32477356 -59.80401611 234.61270142 C-60.3152805 232.34294585 -60.84468688 230.07787411 -61.375 227.8125 C-61.74072305 226.21051642 -62.10578309 224.60838134 -62.47021484 223.00610352 C-65.39031862 210.25928375 -68.55914771 197.5752202 -71.77612305 184.90063477 C-74.33733077 174.79022713 -76.688636 164.64989 -78.90283203 154.45703125 C-80.69328467 146.25504111 -82.68472042 138.11734899 -84.75073242 129.98095703 C-87.41940523 119.43322122 -89.84367121 108.8322777 -92.26318359 98.22509766 C-93.67526135 92.04433319 -95.10566884 85.86778845 -96.53466797 79.69091797 C-97.91542921 73.7171029 -99.28823289 67.74161401 -100.65013123 61.76347351 C-101.44223536 58.28896305 -102.2373906 54.81515378 -103.0328064 51.34140015 C-103.42156129 49.6402344 -103.80899477 47.93876603 -104.19497681 46.23696899 C-106.73479314 35.04225398 -109.3659591 23.9021227 -113 13 C-118.94 12.01 -118.94 12.01 -125 11 C-125 10.01 -125 9.02 -125 8 C-112.13 8 -99.26 8 -86 8 C-86 8.99 -86 9.98 -86 11 C-87.918125 11.185625 -87.918125 11.185625 -89.875 11.375 C-93.34790936 11.69042399 -93.34790936 11.69042399 -96 14 C-95.62081095 22.01352853 -93.61205802 29.76883289 -91.8125 37.5625 C-91.49530025 38.95244145 -91.17824497 40.34241589 -90.86132812 41.73242188 C-88.78294378 50.80557382 -86.57089011 59.84002819 -84.27075195 68.85961914 C-82.03165395 77.70586735 -80.03684989 86.60344898 -78.05224609 95.50927734 C-76.14959887 104.03687984 -74.15992447 112.5335581 -72 121 C-69.5007008 130.79671824 -67.25113993 140.64183116 -65.05224609 150.50927734 C-63.14959671 159.03688951 -61.15959353 167.53346918 -59 176 C-55.6777751 189.04165388 -52.75698494 202.16832267 -49.82714844 215.30224609 C-48.58606783 220.85047719 -47.32527447 226.3941731 -46.0625 231.9375 C-45.65754597 233.71744653 -45.25259734 235.49739428 -44.84765625 237.27734375 C-44.56792969 238.50582031 -44.28820313 239.73429688 -44 241 C-39.23896411 222.26594396 -34.58143363 203.53179504 -30.4609375 184.64453125 C-26.60421488 166.98772501 -22.44210128 149.39269535 -17.953125 131.88598633 C-17.28450218 129.26131124 -16.63885435 126.63205974 -16 124 C-15.78682129 123.17435547 -15.57364258 122.34871094 -15.35400391 121.49804688 C-12.51056855 109.42116689 -15.96818847 98.25875989 -19.00759888 86.55578613 C-20.15989825 82.11830342 -21.28534351 77.67399634 -22.4140625 73.23046875 C-22.63769974 72.35307037 -22.86133698 71.475672 -23.0917511 70.57168579 C-25.73847683 60.15737819 -28.1430982 49.69082039 -30.49438477 39.20605469 C-30.82130375 37.77967132 -31.1721035 36.35846097 -31.55126953 34.94506836 C-33.38546203 26.99457237 -33.30432481 16.16284736 -29.3359375 8.9296875 C-21.86356619 -1.86373772 -12.56931694 -7.35186462 0 0 Z " fill="#050505" transform="translate(1245,131)"/>
<path d="M0 0 C37.62 0 75.24 0 114 0 C114 7.26 114 14.52 114 22 C113.01 22 112.02 22 111 22 C110.87044922 20.67935547 110.87044922 20.67935547 110.73828125 19.33203125 C110.59777344 18.17058594 110.45726562 17.00914062 110.3125 15.8125 C110.18488281 14.66394531 110.05726562 13.51539063 109.92578125 12.33203125 C108.76512993 8.15466595 107.37602675 6.6978746 104 4 C101.24885811 3.50102568 99.10879981 3.3068518 96.36401367 3.34057617 C95.23638107 3.32485062 95.23638107 3.32485062 94.08596802 3.30880737 C91.61287876 3.28011453 89.14119425 3.28634155 86.66796875 3.29296875 C84.9487381 3.27985011 83.22952286 3.26454537 81.5103302 3.24714661 C76.99427151 3.2073027 72.47861607 3.19710659 67.96240234 3.19311523 C62.53902982 3.18214061 57.11587204 3.13428832 51.6926651 3.09262848 C43.4615958 3.03352266 35.23164684 3.02122056 27 3 C27 17.85 27 32.7 27 48 C31.95 49.485 31.95 49.485 37 51 C47.73799958 56.46816337 57.34754057 64.65950078 66.4375 72.5 C81.36066909 85.78962379 81.36066909 85.78962379 100 90 C102.0064731 89.70814937 104.00994193 89.38830401 106 89 C106 89.66 106 90.32 106 91 C99.19382453 94.04000966 92.70270582 94.29723568 85.6328125 91.8203125 C74.57963251 86.58195736 65.11269435 79.06534896 55.578125 71.49609375 C54.81661133 70.89482666 54.05509766 70.29355957 53.27050781 69.67407227 C51.82506615 68.52875403 50.38612641 67.37514617 48.95605469 66.21069336 C41.93499349 60.62366167 34.93162356 56.75897414 27 52 C27 115.69 27 179.38 27 245 C67.88987284 249.21689003 67.88987284 249.21689003 106 242 C109.38420864 236.98635757 109.6634248 231.87265687 110 226 C110.99 226 111.98 226 113 226 C113 233.26 113 240.52 113 248 C75.71 248 38.42 248 0 248 C0 247.01 0 246.02 0 245 C0.61488281 244.90203125 1.22976563 244.8040625 1.86328125 244.703125 C3.07564453 244.47882813 3.07564453 244.47882813 4.3125 244.25 C5.51326172 244.04117188 5.51326172 244.04117188 6.73828125 243.828125 C9.72197342 242.73565049 10.42660867 241.76510726 12 239 C12.29404908 236.34418761 12.41632124 233.92286513 12.39872742 231.2678833 C12.40537424 230.4845071 12.41202107 229.7011309 12.41886932 228.89401603 C12.4375348 226.26677738 12.43489168 223.63999274 12.43237305 221.01269531 C12.44138805 219.13034927 12.45171462 217.24800912 12.46325684 215.36567688 C12.49088373 210.25242504 12.50011908 205.13928442 12.50611091 200.0259676 C12.51547977 194.68342476 12.54168193 189.34096547 12.56611633 183.99847412 C12.609826 173.880282 12.63834553 163.76210606 12.66143972 153.64384818 C12.68846744 142.12518416 12.73238044 130.60660402 12.77772844 119.08799982 C12.87063871 95.39204532 12.94229022 71.69606452 13 48 C8.38 48.33 3.76 48.66 -1 49 C-1 48.01 -1 47.02 -1 46 C2.14930893 44.95023036 4.38814456 44.89868405 7.6875 44.9375 C8.68136719 44.94652344 9.67523437 44.95554688 10.69921875 44.96484375 C11.83810547 44.98224609 11.83810547 44.98224609 13 45 C12.88177165 39.7854073 12.75752459 34.571006 12.62768555 29.35668945 C12.58436066 27.58264063 12.54268381 25.80855077 12.50268555 24.03442383 C12.4449238 21.48506295 12.38124638 18.9359082 12.31640625 16.38671875 C12.29969376 15.59287277 12.28298126 14.79902679 12.26576233 13.98112488 C12.17882282 10.75316923 12.02749634 8.08248901 11 5 C7.37 4.34 3.74 3.68 0 3 C0 2.01 0 1.02 0 0 Z " fill="#0B0B0B" transform="translate(1374,139)"/>
<path d="M0 0 C37.62 0 75.24 0 114 0 C114 6.93 114 13.86 114 21 C113.01 21 112.02 21 111 21 C110.91363281 20.19175781 110.82726563 19.38351563 110.73828125 18.55078125 C110.59777344 17.48214844 110.45726562 16.41351563 110.3125 15.3125 C110.18488281 14.25675781 110.05726562 13.20101562 109.92578125 12.11328125 C108.73511815 8.10923699 107.24939744 6.61189904 104 4 C101.24885811 3.50102568 99.10879981 3.3068518 96.36401367 3.34057617 C95.23638107 3.32485062 95.23638107 3.32485062 94.08596802 3.30880737 C91.61287876 3.28011453 89.14119425 3.28634155 86.66796875 3.29296875 C84.9487381 3.27985011 83.22952286 3.26454537 81.5103302 3.24714661 C76.99427151 3.2073027 72.47861607 3.19710659 67.96240234 3.19311523 C62.53902982 3.18214061 57.11587204 3.13428832 51.6926651 3.09262848 C43.4615958 3.03352266 35.23164684 3.02122056 27 3 C27 17.85 27 32.7 27 48 C29.97 48.99 32.94 49.98 36 51 C47.46635943 56.60965113 57.34273456 64.6266887 66.875 73 C80.12033691 84.92896327 80.12033691 84.92896327 96.33203125 89.9765625 C97.48058594 89.86054688 98.62914062 89.74453125 99.8125 89.625 C100.97394531 89.51414062 102.13539062 89.40328125 103.33203125 89.2890625 C104.21246094 89.19367188 105.09289063 89.09828125 106 89 C106 89.66 106 90.32 106 91 C99.17864709 94.04678873 92.67083087 94.31070999 85.59765625 91.78515625 C73.05049184 85.78679306 62.35312791 77.1506033 51.62988281 68.41381836 C44.28473034 62.50179613 36.44038455 57.22019228 28 53 C27.67 116.36 27.34 179.72 27 245 C67.88987284 249.21689003 67.88987284 249.21689003 106 242 C108.87776129 236.77739617 109.61178782 231.90350249 110 226 C110.99 226 111.98 226 113 226 C113 233.26 113 240.52 113 248 C75.38 248 37.76 248 -1 248 C-1 247.01 -1 246.02 -1 245 C-0.30132813 244.87882813 0.39734375 244.75765625 1.1171875 244.6328125 C2.02726563 244.46523438 2.93734375 244.29765625 3.875 244.125 C4.77992188 243.96257812 5.68484375 243.80015625 6.6171875 243.6328125 C9.16505988 243.16955297 9.16505988 243.16955297 11 241 C12.39907517 237.25505083 12.15288935 233.28696478 12.15821838 229.34381104 C12.16315636 228.56860194 12.16809434 227.79339284 12.17318195 226.99469256 C12.18854892 224.39522688 12.19691541 221.79578588 12.20532227 219.19628906 C12.21490142 217.33365156 12.22491152 215.47101623 12.23532104 213.60838318 C12.26237214 208.54887794 12.28338062 203.48936337 12.30332303 198.42982578 C12.32518129 193.14336507 12.35257077 187.85693312 12.37937927 182.57049561 C12.4293083 172.5585506 12.47424637 162.54658962 12.51740164 152.53461337 C12.5667722 141.13689501 12.62169101 129.73920551 12.67708123 118.34151506 C12.79090451 94.8943703 12.89774282 71.44719785 13 48 C8.38 48.33 3.76 48.66 -1 49 C-1 48.01 -1 47.02 -1 46 C2.15506142 45.06380187 4.96586502 44.8942877 8.25 44.9375 C9.14203125 44.94652344 10.0340625 44.95554688 10.953125 44.96484375 C11.62859375 44.97644531 12.3040625 44.98804688 13 45 C12.88177165 39.7854073 12.75752459 34.571006 12.62768555 29.35668945 C12.58436066 27.58264063 12.54268381 25.80855077 12.50268555 24.03442383 C12.4449238 21.48506295 12.38124638 18.9359082 12.31640625 16.38671875 C12.29969376 15.59287277 12.28298126 14.79902679 12.26576233 13.98112488 C12.17882282 10.75316923 12.02749634 8.08248901 11 5 C8.43957934 3.96961044 8.43957934 3.96961044 5.4375 3.3125 C3.91962891 2.93544922 3.91962891 2.93544922 2.37109375 2.55078125 C1.19740234 2.27814453 1.19740234 2.27814453 0 2 C0 1.34 0 0.68 0 0 Z " fill="#0B0B0B" transform="translate(980,139)"/>
<path d="M0 0 C13.53 0 27.06 0 41 0 C41 0.66 41 1.32 41 2 C39.95199219 2.27263672 39.95199219 2.27263672 38.8828125 2.55078125 C37.97273437 2.80214844 37.06265625 3.05351562 36.125 3.3125 C35.22007812 3.55613281 34.31515625 3.79976562 33.3828125 4.05078125 C30.67886681 4.86669852 30.67886681 4.86669852 29 8 C28.80493902 10.76989624 28.72785708 13.43933871 28.74171448 16.2096405 C28.73803877 17.05689975 28.73436307 17.90415899 28.73057598 18.77709275 C28.72056437 21.62774152 28.72475334 24.47819641 28.72875977 27.32885742 C28.72437391 29.36915291 28.71907226 31.40944661 28.71292114 33.44973755 C28.70139878 37.85315738 28.69596 42.25652895 28.69503975 46.65996361 C28.69309839 53.64406573 28.6750354 60.62806867 28.65428162 67.61213684 C28.6050759 84.97984084 28.57434021 102.34757217 28.55297852 119.71533203 C28.53638611 133.17624599 28.51333589 146.63707572 28.46995777 160.09793359 C28.44836555 167.01661322 28.44010657 173.93513217 28.44235051 180.85384309 C28.44066227 185.19913854 28.42648203 189.54433276 28.40913773 193.88959122 C28.40362163 195.87746367 28.40297392 197.86535787 28.40807533 199.85323143 C28.4327311 210.60443848 27.94499345 221.14704595 26.65074158 231.82710266 C26.53300906 232.81288368 26.41527654 233.79866471 26.29397637 234.81431788 C25.14714698 243.48091074 22.69019512 251.10532828 19 259 C18.52433594 260.03511719 18.04867187 261.07023437 17.55859375 262.13671875 C11.44643526 274.34438136 2.18910699 280.84054158 -10.3125 285.8125 C-17.29148907 288.05997106 -23.72883424 288.11644216 -31 288 C-31 287.34 -31 286.68 -31 286 C-29.92621094 285.75765625 -28.85242188 285.5153125 -27.74609375 285.265625 C-26.3097591 284.92766391 -24.87356871 284.58908935 -23.4375 284.25 C-22.73302734 284.09273438 -22.02855469 283.93546875 -21.30273438 283.7734375 C-13.81925126 281.98016044 -8.17669743 278.84037658 -3 273 C-2.30970703 272.2575 -2.30970703 272.2575 -1.60546875 271.5 C2.06217044 267.16463758 4.43422146 262.35460394 6.6875 257.1875 C6.97286621 256.5677832 7.25823242 255.94806641 7.55224609 255.30957031 C13.82147639 240.15923612 13.44605942 222.71130278 13.41992188 206.61938477 C13.42728117 204.44575571 13.43587272 202.27213054 13.44558716 200.09851074 C13.46759051 194.25860912 13.47074544 188.41884939 13.46883965 182.57891202 C13.46871921 177.69216778 13.4773108 172.80545284 13.48561716 167.91871685 C13.50476616 156.40078766 13.50776259 144.88293096 13.50097656 133.36499023 C13.49430707 121.48518715 13.51733604 109.60569228 13.55429029 97.72595173 C13.58493297 87.50391653 13.59635428 77.28198094 13.59245348 67.0599007 C13.59038432 60.9633319 13.59589495 54.86700439 13.62034607 48.7704792 C13.64252698 43.05334296 13.64080771 37.33671359 13.62041855 31.6195755 C13.61699572 29.52007342 13.62215197 27.42053767 13.63640213 25.32108116 C13.65448029 22.46118177 13.64193224 19.60302426 13.62145996 16.74317932 C13.63397781 15.90789139 13.64649566 15.07260346 13.65939283 14.21200377 C13.59805695 10.23176801 13.41087954 8.42727777 10.60105133 5.5053091 C8.22030978 4.1275001 6.36519863 3.29461667 3.6875 2.75 C2.470625 2.5025 1.25375 2.255 0 2 C0 1.34 0 0.68 0 0 Z " fill="#090909" transform="translate(909,139)"/>
<path d="M0 0 C13.53 0 27.06 0 41 0 C41 0.99 41 1.98 41 3 C40.31292969 3.07476562 39.62585937 3.14953125 38.91796875 3.2265625 C38.01691406 3.35804688 37.11585937 3.48953125 36.1875 3.625 C34.84751953 3.79902344 34.84751953 3.79902344 33.48046875 3.9765625 C30.79211483 4.81480459 30.79211483 4.81480459 29.36989117 7.4612751 C27.61441415 11.99605156 27.57522985 15.8246248 27.60127258 20.64303589 C27.59462576 21.60779724 27.58797893 22.5725586 27.58113068 23.56655514 C27.56249511 26.795617 27.5651064 30.0243085 27.56762695 33.25341797 C27.55861016 35.5695498 27.54828315 37.88567685 27.53674316 40.20179749 C27.50913751 46.48844434 27.49988375 52.77500073 27.49388909 59.06170034 C27.48451477 65.63208198 27.45831211 72.20239579 27.43388367 78.7727356 C27.39465917 89.80030019 27.36681241 100.82785411 27.34643555 111.85546875 C27.32542134 123.21259167 27.2981424 134.56967112 27.26245117 145.92675781 C27.26025235 146.62712543 27.25805352 147.32749305 27.25578807 148.04908393 C27.2447183 151.5627172 27.23352551 155.07635007 27.22227156 158.58998275 C27.12910779 187.72661421 27.05772147 216.86327721 27 246 C36.54502824 245.96191793 46.08961883 245.90251999 55.63433266 245.81609726 C60.06662069 245.77663081 64.4987103 245.74443834 68.93115234 245.72900391 C73.21078712 245.71383169 77.48987637 245.67937656 81.76926804 245.63169098 C83.39983751 245.61688292 85.03048487 245.60895931 86.66112137 245.60811615 C88.94996167 245.60574288 91.23729873 245.57863755 93.52587891 245.54589844 C94.82715729 245.53701599 96.12843567 245.52813354 97.46914673 245.51898193 C101.59382802 244.91271628 103.7721479 243.59064467 107 241 C109.73104292 236.57831146 109.62528255 231.07840748 110 226 C110.99 226 111.98 226 113 226 C113 233.26 113 240.52 113 248 C75.71 248 38.42 248 0 248 C0 247.01 0 246.02 0 245 C0.77085938 244.91363281 1.54171875 244.82726562 2.3359375 244.73828125 C3.33882812 244.59777344 4.34171875 244.45726562 5.375 244.3125 C6.87160156 244.12107422 6.87160156 244.12107422 8.3984375 243.92578125 C11.12884387 243.27040959 11.12884387 243.27040959 12.1467247 241.01902103 C13.31297021 236.8926626 13.27586023 233.03833015 13.25396729 228.7698822 C13.25708727 227.8373824 13.26020725 226.9048826 13.26342177 225.94412524 C13.27140197 222.81807332 13.265078 219.69221549 13.25878906 216.56616211 C13.26149889 214.32563666 13.26505978 212.0851121 13.26940918 209.84458923 C13.27853584 203.75801182 13.27498789 197.67150212 13.26865101 191.58492351 C13.2635931 185.22064069 13.26828182 178.85636373 13.27142334 172.49208069 C13.27529657 161.12001492 13.26907573 149.74798359 13.25890467 138.37592471 C13.24996709 128.06367086 13.25152313 117.75146203 13.26074219 107.43920898 C13.27144323 95.46363771 13.27543047 83.4880938 13.26951766 71.51251608 C13.26639598 65.1732545 13.26599412 58.83402393 13.27259064 52.49476433 C13.27835736 46.53664237 13.27437951 40.57860566 13.26280212 34.62049294 C13.26015206 32.43070492 13.26092651 30.24090977 13.26532745 28.05112457 C13.27077054 25.06836343 13.26396375 22.08587763 13.25396729 19.10313416 C13.25842873 18.23105991 13.26289017 17.35898566 13.26748681 16.46048492 C13.26227132 15.66139003 13.25705582 14.86229514 13.25168228 14.03898525 C13.25135758 13.35060461 13.25103287 12.66222398 13.25069833 11.95298332 C12.94843021 9.59826239 12.24433934 8.01522409 11 6 C7.47515924 4.13966738 3.92410537 3.54754959 0 3 C0 2.01 0 1.02 0 0 Z " fill="#000000" transform="translate(1521,139)"/>
<path d="M0 0 C12.87 0 25.74 0 39 0 C39 0.99 39 1.98 39 3 C37.72125 3.12375 36.4425 3.2475 35.125 3.375 C31.65209064 3.69042399 31.65209064 3.69042399 29 6 C29.37918905 14.01352853 31.38794198 21.76883289 33.1875 29.5625 C33.50469975 30.95244145 33.82175503 32.34241589 34.13867188 33.73242188 C36.21705622 42.80557382 38.42910989 51.84002819 40.72924805 60.85961914 C42.96834605 69.70586735 44.96315011 78.60344898 46.94775391 87.50927734 C48.85040113 96.03687984 50.84007553 104.5335581 53 113 C55.4992992 122.79671824 57.74886007 132.64183116 59.94775391 142.50927734 C61.85040329 151.03688951 63.84040647 159.53346918 66 168 C69.3222249 181.04165388 72.24301506 194.16832267 75.17285156 207.30224609 C76.41393217 212.85047719 77.67472553 218.3941731 78.9375 223.9375 C79.34245403 225.71744653 79.74740266 227.49739428 80.15234375 229.27734375 C80.43207031 230.50582031 80.71179687 231.73429688 81 233 C81.99 232.67 82.98 232.34 84 232 C83.94199219 232.61488281 83.88398437 233.22976563 83.82421875 233.86328125 C83.68728668 236.31632153 83.66263439 238.56491235 84 241 C87.42382868 244.3200763 91.37159877 244.54623517 96 245 C96 245.99 96 246.98 96 248 C83.46 248 70.92 248 58 248 C58 247.01 58 246.02 58 245 C61.96 244.01 61.96 244.01 66 243 C66.99995223 237.7830944 66.84134773 233.87348416 65.6640625 228.70703125 C65.50959656 228.0159024 65.35513062 227.32477356 65.19598389 226.61270142 C64.6847195 224.34294585 64.15531312 222.07787411 63.625 219.8125 C63.25927695 218.21051642 62.89421691 216.60838134 62.52978516 215.00610352 C59.60968138 202.25928375 56.44085229 189.5752202 53.22387695 176.90063477 C50.66266923 166.79022713 48.311364 156.64989 46.09716797 146.45703125 C44.30671533 138.25504111 42.31527958 130.11734899 40.24926758 121.98095703 C37.58059477 111.43322122 35.15632879 100.8322777 32.73681641 90.22509766 C31.32473865 84.04433319 29.89433116 77.86778845 28.46533203 71.69091797 C27.08457079 65.7171029 25.71176711 59.74161401 24.34986877 53.76347351 C23.55776464 50.28896305 22.7626094 46.81515378 21.9671936 43.34140015 C21.57843871 41.6402344 21.19100523 39.93876603 20.80502319 38.23696899 C18.26520686 27.04225398 15.6340409 15.9021227 12 5 C6.06 4.01 6.06 4.01 0 3 C0 2.01 0 1.02 0 0 Z " fill="#050505" transform="translate(1120,139)"/>
<path d="M0 0 C5.16731808 1.78868703 7.90559452 4.53030319 11 9 C15.67832005 22.57928626 12.548146 36.22291263 9.1875 49.6875 C8.82580694 51.19035498 8.46577631 52.69361105 8.10742188 54.19726562 C7.41301419 57.10369619 6.70608833 60.00661882 5.98974609 62.90771484 C5.33485144 65.57799754 4.71760521 68.25207241 4.13916016 70.93994141 C3.7551001 72.71183838 3.7551001 72.71183838 3.36328125 74.51953125 C3.14583252 75.55827393 2.92838379 76.5970166 2.7043457 77.66723633 C2.47191162 78.43704834 2.23947754 79.20686035 2 80 C1.01 80.495 1.01 80.495 0 81 C-7.82233804 49.90015659 -7.82233804 49.90015659 -10.875 37.125 C-11.06537842 36.33262939 -11.25575684 35.54025879 -11.4519043 34.72387695 C-16.70834929 12.5555981 -16.70834929 12.5555981 -13.6875 4.5 C-10.06839538 -0.86163648 -5.89851705 -0.63740407 0 0 Z " fill="#F2F2F2" transform="translate(1238,131)"/>
<path d="M0 0 C9.24 0 18.48 0 28 0 C28 0.99 28 1.98 28 3 C27.31292969 3.10957031 26.62585937 3.21914062 25.91796875 3.33203125 C25.01691406 3.49058594 24.11585937 3.64914063 23.1875 3.8125 C22.29417969 3.96332031 21.40085937 4.11414063 20.48046875 4.26953125 C17.60494789 5.11633818 16.82465053 5.64718507 15 8 C14.2043334 10.37669514 13.55845006 12.6486501 12.984375 15.078125 C12.80790436 15.78853943 12.63143372 16.49895386 12.44961548 17.230896 C11.87237222 19.56811663 11.31094266 21.90881836 10.75 24.25 C10.35039688 25.88426747 9.95016167 27.5183805 9.54931641 29.15234375 C6.73753832 40.67439681 4.09956096 52.23300734 1.52880859 63.81103516 C-1.1645383 75.89592477 -4.18580799 87.89014818 -7.21972656 99.89306641 C-10.69155172 113.71736146 -13.8292124 127.6184078 -16.95498657 141.52410889 C-20.10493508 155.53412468 -23.35016398 169.51662862 -26.875 183.4375 C-29.19328997 192.62549821 -31.3161919 201.85949477 -33.45068359 211.09155273 C-35.22455267 218.74780376 -37.06398867 226.38307992 -39 234 C-39.99 233.67 -40.98 233.34 -42 233 C-36.5683668 208.23604073 -30.90905315 183.52865505 -24.86224365 158.90771484 C-22.27292436 148.35759552 -19.7935897 137.7922726 -17.4375 127.1875 C-14.96811453 116.07562254 -12.29379178 105.03282236 -9.49249268 94.00146484 C-6.77219791 83.27657548 -4.27107318 72.51541233 -1.87463379 61.71389771 C-0.14193544 53.91296285 1.66924014 46.15318682 3.75 38.4375 C8.19499146 21.96889067 8.19499146 21.96889067 9 5 C4.545 4.01 4.545 4.01 0 3 C0 2.01 0 1.02 0 0 Z " fill="#2B2B2B" transform="translate(1319,139)"/>
<path d="M0 0 C0.33 0.66 0.66 1.32 1 2 C1.66 2.33 2.32 2.66 3 3 C2.42216383 5.85537129 1.83777274 8.7091704 1.25 11.5625 C1.01410156 12.73329102 1.01410156 12.73329102 0.7734375 13.92773438 C-0.41552714 19.66677523 -1.8686121 25.30639873 -3.40371704 30.96211243 C-5.31052577 38.04875724 -6.94859955 45.19252201 -8.5776062 52.34725952 C-9.14135351 54.82178241 -9.70897283 57.29539019 -10.27758789 59.76879883 C-11.97563229 67.1571497 -13.66764784 74.54687704 -15.35791016 81.93701172 C-16.49240284 86.89505895 -17.63221898 91.85186008 -18.77508545 96.8079834 C-19.21505744 98.72054201 -19.65310139 100.63354524 -20.08917236 102.54699707 C-20.69932218 105.22383246 -21.31575407 107.89914943 -21.93359375 110.57421875 C-22.11344315 111.37037094 -22.29329254 112.16652313 -22.47859192 112.98680115 C-23.30825167 116.55133661 -24.12730435 119.83159006 -26 123 C-26.66 123 -27.32 123 -28 123 C-27.3284496 115.85714579 -25.61294343 109.12151054 -23.8125 102.1875 C-21.39276164 92.69611354 -19.09287677 83.19385699 -17 73.625 C-12.59581698 53.52234471 -7.97288645 33.47100795 -2.86523438 13.53442383 C-1.72006746 9.03788926 -0.65933813 4.60003345 0 0 Z " fill="#262626" transform="translate(1230,249)"/>
<path d="M0 0 C6.53775615 3.82397058 9.72582292 8.87217632 12.3125 15.9375 C14.65157367 31.26012749 9.83373241 46.60927915 6.18896484 61.37988281 C5.22349782 65.29876456 4.30127205 69.22628797 3.38964844 73.15795898 C2.7096121 76.08747035 2.01220824 79.01263264 1.3125 81.9375 C-0.1725 81.4425 -0.1725 81.4425 -1.6875 80.9375 C-1.153343 77.9776418 -0.61164839 75.01959529 -0.0625 72.0625 C0.10991211 71.13155518 0.28232422 70.20061035 0.45996094 69.24145508 C1.69170287 62.76200153 3.15820212 56.37172273 4.74194336 49.9699707 C10.18789314 29.20839469 10.18789314 29.20839469 5.3125 8.9375 C2.23138739 5.46072539 -1.08248969 3.09795353 -5.84375 2.8046875 C-6.6171875 2.80726563 -7.390625 2.80984375 -8.1875 2.8125 C-8.9609375 2.80992187 -9.734375 2.80734375 -10.53125 2.8046875 C-12.87197017 2.85604187 -12.87197017 2.85604187 -15.6875 3.9375 C-15.6875 2.6175 -15.6875 1.2975 -15.6875 -0.0625 C-10.34145956 -1.84451348 -5.38465192 -1.55150988 0 0 Z " fill="#161616" transform="translate(1241.6875,129.0625)"/>
<path d="M0 0 C0.33 0.66 0.66 1.32 1 2 C1.66 2 2.32 2 3 2 C-0.25579783 16.91310675 -3.74160239 31.76958515 -7.25 46.625 C-7.81000098 48.99997521 -8.36989752 51.37497505 -8.9296875 53.75 C-10.28525683 59.50028392 -11.6421054 65.25026476 -13 71 C-13.99 70.67 -14.98 70.34 -16 70 C-13.39678544 58.13139677 -10.70596121 46.28301221 -8 34.4375 C-7.74923706 33.33853897 -7.74923706 33.33853897 -7.4934082 32.21737671 C-5.03977098 21.4677161 -2.53726261 10.73022527 0 0 Z " fill="#1C1C1C" transform="translate(1293,302)"/>
<path d="M0 0 C9.24 0 18.48 0 28 0 C28 0.99 28 1.98 28 3 C27.31292969 3.10957031 26.62585937 3.21914062 25.91796875 3.33203125 C25.01691406 3.49058594 24.11585937 3.64914063 23.1875 3.8125 C22.29417969 3.96332031 21.40085937 4.11414063 20.48046875 4.26953125 C17.70465723 5.08697496 16.69738798 5.68161641 15 8 C14.00011074 10.49018012 14.00011074 10.49018012 13.3125 13.1875 C13.06113281 14.08855469 12.80976562 14.98960937 12.55078125 15.91796875 C12.36902344 16.60503906 12.18726563 17.29210937 12 18 C11.34 18 10.68 18 10 18 C9.67 13.71 9.34 9.42 9 5 C4.545 4.01 4.545 4.01 0 3 C0 2.01 0 1.02 0 0 Z " fill="#101010" transform="translate(1319,139)"/>
<path d="M0 0 C0.33 0.66 0.66 1.32 1 2 C1.66 2 2.32 2 3 2 C1.62922694 10.05631552 -0.08846615 17.99327888 -2 25.9375 C-2.39058594 27.60135742 -2.39058594 27.60135742 -2.7890625 29.29882812 C-3.04429688 30.36423828 -3.29953125 31.42964844 -3.5625 32.52734375 C-3.90474609 33.96194946 -3.90474609 33.96194946 -4.25390625 35.42553711 C-4.94551549 37.81199634 -5.80748451 39.82768973 -7 42 C-7.66 41.67 -8.32 41.34 -9 41 C-8.39374702 35.08566537 -7.21738646 29.59570864 -5.625 23.875 C-3.47720495 15.9608844 -1.61374153 8.04246797 0 0 Z " fill="#1C1C1C" transform="translate(1328,155)"/>
<path d="M0 0 C9.9 0 19.8 0 30 0 C30 0.99 30 1.98 30 3 C20.1 3 10.2 3 0 3 C0 2.01 0 1.02 0 0 Z " fill="#000000" transform="translate(877,207)"/>
<path d="M0 0 C0.33 0 0.66 0 1 0 C1.3375 6.25673075 0.0784061 11.76140375 -1.4375 17.8125 C-1.66759766 18.76576172 -1.89769531 19.71902344 -2.13476562 20.70117188 C-3.84223301 27.68446602 -3.84223301 27.68446602 -5 30 C-5.66 30 -6.32 30 -7 30 C-6.58848911 23.51870348 -5.52824189 17.37497065 -4.0625 11.0625 C-3.89266602 10.31685791 -3.72283203 9.57121582 -3.54785156 8.80297852 C-2.73133972 5.39034784 -1.96536152 2.94804228 0 0 Z " fill="#202020" transform="translate(1217,310)"/>
<path d="M0 0 C0.33 0 0.66 0 1 0 C1.349746 6.30417167 0.04072396 11.84539417 -1.5 17.9375 C-1.73847656 18.90751953 -1.97695312 19.87753906 -2.22265625 20.87695312 C-2.80793388 23.25318032 -3.40053251 25.62732042 -4 28 C-4.99 27.67 -5.98 27.34 -7 27 C-6.41093013 23.62218603 -5.80105644 20.24844487 -5.1875 16.875 C-5.02185547 15.92367187 -4.85621094 14.97234375 -4.68554688 13.9921875 C-3.73567998 8.83064663 -2.66569132 4.5370219 0 0 Z " fill="#1E1E1E" transform="translate(1247,183)"/>
<path d="M0 0 C0.33 0.66 0.66 1.32 1 2 C1.66 2 2.32 2 3 2 C2.72285156 3.24136719 2.44570312 4.48273438 2.16015625 5.76171875 C1.79424248 7.40363951 1.42835864 9.04556695 1.0625 10.6875 C0.88009766 11.50412109 0.69769531 12.32074219 0.50976562 13.16210938 C-0.36727628 17.10082483 -1.23340455 21.03791195 -2 25 C-2.99 24.34 -3.98 23.68 -5 23 C-4.35541903 19.91640349 -3.70911557 16.83317045 -3.0625 13.75 C-2.88009766 12.87730469 -2.69769531 12.00460937 -2.50976562 11.10546875 C-2.33251953 10.26113281 -2.15527344 9.41679687 -1.97265625 8.546875 C-1.72914429 7.38430176 -1.72914429 7.38430176 -1.48071289 6.19824219 C-1.02638067 4.12063563 -0.5273492 2.06015019 0 0 Z " fill="#2D2D2D" transform="translate(1293,302)"/>
<path d="M0 0 C0.33 0.66 0.66 1.32 1 2 C1.66 2.33 2.32 2.66 3 3 C1.68 9.27 0.36 15.54 -1 22 C-1.99 21.67 -2.98 21.34 -4 21 C-3.29843593 13.84404654 -1.69214979 6.98144819 0 0 Z " fill="#202020" transform="translate(1230,249)"/>
<path d="M0 0 C0.33 0 0.66 0 1 0 C1.42765417 6.41481258 -0.14256832 11.88595404 -2 18 C-2.66 18 -3.32 18 -4 18 C-2.64974619 2.64974619 -2.64974619 2.64974619 0 0 Z " fill="#161616" transform="translate(1289,324)"/>
<path d="M0 0 C0.33 0 0.66 0 1 0 C0.50130596 5.36891879 -0.02227532 10.69235173 -1 16 C-1.99 15.34 -2.98 14.68 -4 14 C-3.71715982 12.22773547 -3.42339502 10.457212 -3.125 8.6875 C-2.96257812 7.70136719 -2.80015625 6.71523437 -2.6328125 5.69921875 C-2 3 -2 3 0 0 Z " fill="#0F0F0F" transform="translate(1250,170)"/>
<path d="M0 0 C0.680625 -0.02578125 1.36125 -0.0515625 2.0625 -0.078125 C4 0.25 4 0.25 7 3.25 C2.38 3.58 -2.24 3.91 -7 4.25 C-7 3.26 -7 2.27 -7 1.25 C-4.38672515 0.37890838 -2.69288829 0.06120201 0 0 Z " fill="#333333" transform="translate(1380,183.75)"/>
<path d="M0 0 C0.66 0.99 1.32 1.98 2 3 C-2.62 3.33 -7.24 3.66 -12 4 C-12 3.01 -12 2.02 -12 1 C-7.97542684 -0.34152439 -4.1944205 -0.27060777 0 0 Z " fill="#252525" transform="translate(991,184)"/>
<path d="M0 0 C0.33 0.66 0.66 1.32 1 2 C1.66 2 2.32 2 3 2 C2.34 5.63 1.68 9.26 1 13 C0.01 12.67 -0.98 12.34 -2 12 C-1 3.42857143 -1 3.42857143 0 0 Z " fill="#323232" transform="translate(1321,184)"/>
<path d="M0 0 C0.33 0.66 0.66 1.32 1 2 C1.66 2 2.32 2 3 2 C2.34 5.63 1.68 9.26 1 13 C0.01 12.67 -0.98 12.34 -2 12 C-1 3.42857143 -1 3.42857143 0 0 Z " fill="#373737" transform="translate(1328,155)"/>
<path d="M0 0 C0.33 0.66 0.66 1.32 1 2 C1.66 2 2.32 2 3 2 C2.34 5.3 1.68 8.6 1 12 C0.01 12 -0.98 12 -2 12 C-1 3.42857143 -1 3.42857143 0 0 Z " fill="#2C2C2C" transform="translate(1301,268)"/>
<path d="M0 0 C0.33 0.66 0.66 1.32 1 2 C1.66 2 2.32 2 3 2 C2.34 5.3 1.68 8.6 1 12 C0.01 12 -0.98 12 -2 12 C-1 3.42857143 -1 3.42857143 0 0 Z " fill="#272727" transform="translate(1311,226)"/>
<path d="M0 0 C0.33 0 0.66 0 1 0 C1.05447047 1.41623216 1.09300508 2.83308191 1.125 4.25 C1.14820313 5.03890625 1.17140625 5.8278125 1.1953125 6.640625 C0.9828378 9.20731941 0.28654105 10.7916067 -1 13 C-1.66 12.34 -2.32 11.68 -3 11 C-2.79296875 8.65234375 -2.79296875 8.65234375 -2.1875 5.9375 C-1.99542969 5.03902344 -1.80335937 4.14054688 -1.60546875 3.21484375 C-1 1 -1 1 0 0 Z " fill="#1F1F1F" transform="translate(1252,160)"/>
<path d="M0 0 C0.33 0.66 0.66 1.32 1 2 C1.66 2 2.32 2 3 2 C2.34 5.63 1.68 9.26 1 13 C0.01 12.67 -0.98 12.34 -2 12 C-1.34 8.04 -0.68 4.08 0 0 Z " fill="#2E2E2E" transform="translate(1242,198)"/>
<path d="M0 0 C0.33 0 0.66 0 1 0 C0.67 3.63 0.34 7.26 0 11 C-0.99 11.33 -1.98 11.66 -3 12 C-2.88541307 10.56163249 -2.75790884 9.12429034 -2.625 7.6875 C-2.55539062 6.88699219 -2.48578125 6.08648437 -2.4140625 5.26171875 C-2 3 -2 3 0 0 Z " fill="#101010" transform="translate(1310,237)"/>
<path d="M0 0 C1.45606519 4.52092968 0.27032841 7.51648796 -1 12 C-1.66 12 -2.32 12 -3 12 C-2.88541307 10.56163249 -2.75790884 9.12429034 -2.625 7.6875 C-2.55539062 6.88699219 -2.48578125 6.08648437 -2.4140625 5.26171875 C-2 3 -2 3 0 0 Z " fill="#191919" transform="translate(1227,269)"/>
<path d="M0 0 C0.33 0 0.66 0 1 0 C0.85831863 1.43791516 0.71148957 2.8753237 0.5625 4.3125 C0.48128906 5.11300781 0.40007812 5.91351563 0.31640625 6.73828125 C0 9 0 9 -1 12 C-1.66 12 -2.32 12 -3 12 C-2.88541307 10.56163249 -2.75790884 9.12429034 -2.625 7.6875 C-2.55539062 6.88699219 -2.48578125 6.08648437 -2.4140625 5.26171875 C-2 3 -2 3 0 0 Z " fill="#090909" transform="translate(1305,258)"/>
<path d="M0 0 C0.33 0 0.66 0 1 0 C0.85831863 1.43791516 0.71148957 2.8753237 0.5625 4.3125 C0.48128906 5.11300781 0.40007812 5.91351563 0.31640625 6.73828125 C0 9 0 9 -1 12 C-1.66 12 -2.32 12 -3 12 C-2.88541307 10.56163249 -2.75790884 9.12429034 -2.625 7.6875 C-2.55539062 6.88699219 -2.48578125 6.08648437 -2.4140625 5.26171875 C-2 3 -2 3 0 0 Z " fill="#080808" transform="translate(1315,216)"/>
<path d="M0 0 C0.33 0 0.66 0 1 0 C0.85831863 1.43791516 0.71148957 2.8753237 0.5625 4.3125 C0.48128906 5.11300781 0.40007812 5.91351563 0.31640625 6.73828125 C0 9 0 9 -1 12 C-1.66 12 -2.32 12 -3 12 C-2.88541307 10.56163249 -2.75790884 9.12429034 -2.625 7.6875 C-2.55539062 6.88699219 -2.48578125 6.08648437 -2.4140625 5.26171875 C-2 3 -2 3 0 0 Z " fill="#0A0A0A" transform="translate(1320,195)"/>
<path d="M0 0 C0.33 0.66 0.66 1.32 1 2 C1.66 2 2.32 2 3 2 C2.34 5.3 1.68 8.6 1 12 C0.01 11.67 -0.98 11.34 -2 11 C-1.34 7.37 -0.68 3.74 0 0 Z " fill="#333333" transform="translate(1279,361)"/>
<path d="M0 0 C-0.33 2.97 -0.66 5.94 -1 9 C-1.99 9 -2.98 9 -4 9 C-3.4140625 2.84765625 -3.4140625 2.84765625 -3 1 C-1 0 -1 0 0 0 Z " fill="#313131" transform="translate(1206,363)"/>
<path d="M0 0 C0.33 0.66 0.66 1.32 1 2 C1.66 2 2.32 2 3 2 C2.67 4.31 2.34 6.62 2 9 C1.01 8.67 0.02 8.34 -1 8 C-0.67 5.36 -0.34 2.72 0 0 Z " fill="#3E3E3E" transform="translate(1227,262)"/>
<path d="M0 0 C0.33 0.66 0.66 1.32 1 2 C1.66 2 2.32 2 3 2 C2.67 3.98 2.34 5.96 2 8 C1.01 8 0.02 8 -1 8 C-0.67 5.36 -0.34 2.72 0 0 Z " fill="#393939" transform="translate(1284,340)"/>
<path d="M0 0 C0.33 0.66 0.66 1.32 1 2 C1.66 2 2.32 2 3 2 C2.67 3.65 2.34 5.3 2 7 C1.01 7.33 0.02 7.66 -1 8 C-0.67 5.36 -0.34 2.72 0 0 Z " fill="#353535" transform="translate(1223,279)"/>
<path d="M0 0 C0.33 0 0.66 0 1 0 C1.125 5.75 1.125 5.75 0 8 C-0.66 8 -1.32 8 -2 8 C-1.125 1.125 -1.125 1.125 0 0 Z " fill="#101010" transform="translate(1245,192)"/>
<path d="M0 0 C0.33 0 0.66 0 1 0 C0.67 2.64 0.34 5.28 0 8 C-0.66 8 -1.32 8 -2 8 C-2.125 5.125 -2.125 5.125 -2 2 C-1.34 1.34 -0.68 0.68 0 0 Z " fill="#101010" transform="translate(1324,178)"/>
<path d="M0 0 C0.33 0 0.66 0 1 0 C0.67 2.64 0.34 5.28 0 8 C-0.66 8 -1.32 8 -2 8 C-1.125 1.125 -1.125 1.125 0 0 Z " fill="#090909" transform="translate(1296,296)"/>
<path d="M0 0 C0.33 0 0.66 0 1 0 C0.67 2.64 0.34 5.28 0 8 C-0.66 8 -1.32 8 -2 8 C-1.125 1.125 -1.125 1.125 0 0 Z " fill="#070707" transform="translate(1300,279)"/>
<path d="M0 0 C0 0.66 0 1.32 0 2 C-1.98 2.66 -3.96 3.32 -6 4 C-6 3.34 -6 2.68 -6 2 C-6.66 1.67 -7.32 1.34 -8 1 C-5.10765685 0.17361624 -3.11257569 0 0 0 Z " fill="#1C1C1C" transform="translate(1086,228)"/>
</svg>
